<svg width="24" height="24" viewBox="0 0 24 24" fill="none" xmlns="http://www.w3.org/2000/svg">
<path d="M14.3475 14.0017L16.5103 13.864L16.0949 7.37676L9.60762 7.79215L9.74604 9.95406L12.5417 9.77581L7.1489 15.9065L8.77573 17.3376L14.1686 11.2068L14.3475 14.0017Z" fill="#03278D"/>
<path fill-rule="evenodd" clip-rule="evenodd" d="M0.0830078 19.583C0.0830078 20.7323 0.539554 21.8345 1.35221 22.6471C2.16487 23.4598 3.26707 23.9163 4.41634 23.9163L19.583 23.9163C20.7323 23.9163 21.8345 23.4598 22.6471 22.6471C23.4598 21.8345 23.9163 20.7323 23.9163 19.583L23.9163 4.41634C23.9163 3.26707 23.4598 2.16487 22.6471 1.35221C21.8345 0.539554 20.7323 0.0830078 19.583 0.0830078L4.41634 0.0830078C3.26707 0.0830078 2.16487 0.539554 1.35221 1.35221C0.539554 2.16487 0.0830078 3.26707 0.0830078 4.41634L0.0830078 19.583ZM4.41634 21.7497L19.583 21.7497C20.1576 21.7497 20.7087 21.5214 21.1151 21.1151C21.5214 20.7087 21.7497 20.1576 21.7497 19.583L21.7497 4.41634C21.7497 3.84171 21.5214 3.2906 21.1151 2.88428C20.7087 2.47795 20.1576 2.24967 19.583 2.24967L4.41634 2.24967C3.84171 2.24967 3.2906 2.47795 2.88428 2.88428C2.47795 3.2906 2.24967 3.84171 2.24967 4.41634L2.24967 19.583C2.24967 20.1576 2.47795 20.7087 2.88428 21.1151C3.2906 21.5214 3.84171 21.7497 4.41634 21.7497Z" fill="#03278D"/>
</svg>
